<?xml version="1.0" standalone="no"?>
<svg xmlns:xlink="http://www.w3.org/1999/xlink" id="wave" style="transform:rotate(0deg); transition: 0.3s" viewBox="0 0 1440 250" version="1.1" xmlns="http://www.w3.org/2000/svg"><defs><linearGradient id="sw-gradient-0" x1="0" x2="0" y1="1" y2="0"><stop stop-color="rgba(255, 255, 255, 1)" offset="0%"/><stop stop-color="rgba(138.011, 255, 214.176, 0.72)" offset="100%"/></linearGradient></defs><path style="transform:translate(0, 0px); opacity:1" fill="url(#sw-gradient-0)" d="M0,125L48,133.3C96,142,192,158,288,162.5C384,167,480,158,576,137.5C672,117,768,83,864,70.8C960,58,1056,67,1152,79.2C1248,92,1344,108,1440,100C1536,92,1632,58,1728,70.8C1824,83,1920,142,2016,170.8C2112,200,2208,200,2304,187.5C2400,175,2496,150,2592,154.2C2688,158,2784,192,2880,204.2C2976,217,3072,208,3168,175C3264,142,3360,83,3456,50C3552,17,3648,8,3744,33.3C3840,58,3936,117,4032,129.2C4128,142,4224,108,4320,83.3C4416,58,4512,42,4608,37.5C4704,33,4800,42,4896,75C4992,108,5088,167,5184,179.2C5280,192,5376,158,5472,125C5568,92,5664,58,5760,75C5856,92,5952,158,6048,183.3C6144,208,6240,192,6336,158.3C6432,125,6528,75,6624,79.2C6720,83,6816,142,6864,170.8L6912,200L6912,250L6864,250C6816,250,6720,250,6624,250C6528,250,6432,250,6336,250C6240,250,6144,250,6048,250C5952,250,5856,250,5760,250C5664,250,5568,250,5472,250C5376,250,5280,250,5184,250C5088,250,4992,250,4896,250C4800,250,4704,250,4608,250C4512,250,4416,250,4320,250C4224,250,4128,250,4032,250C3936,250,3840,250,3744,250C3648,250,3552,250,3456,250C3360,250,3264,250,3168,250C3072,250,2976,250,2880,250C2784,250,2688,250,2592,250C2496,250,2400,250,2304,250C2208,250,2112,250,2016,250C1920,250,1824,250,1728,250C1632,250,1536,250,1440,250C1344,250,1248,250,1152,250C1056,250,960,250,864,250C768,250,672,250,576,250C480,250,384,250,288,250C192,250,96,250,48,250L0,250Z"/></svg>