<svg id="visual" viewBox="0 0 900 600" width="900" height="600" xmlns="http://www.w3.org/2000/svg" xmlns:xlink="http://www.w3.org/1999/xlink" version="1.1"><rect x="0" y="0" width="900" height="600" fill="#002233"></rect><path d="M0 330L25 323C50 316 100 302 150 294.8C200 287.7 250 287.3 300 294.2C350 301 400 315 450 328.5C500 342 550 355 600 368.2C650 381.3 700 394.7 750 394.2C800 393.7 850 379.3 875 372.2L900 365L900 601L875 601C850 601 800 601 750 601C700 601 650 601 600 601C550 601 500 601 450 601C400 601 350 601 300 601C250 601 200 601 150 601C100 601 50 601 25 601L0 601Z" fill="#0066FF" stroke-linecap="round" stroke-linejoin="miter"></path></svg>